<?xml version="1.0" standalone="no"?>
<!DOCTYPE svg PUBLIC "-//W3C//DTD SVG 1.1//EN" "http://www.w3.org/Graphics/SVG/1.1/DTD/svg11.dtd" >
<svg xmlns="http://www.w3.org/2000/svg">
<metadata>
Created by FontForge 20120731 at Sun Dec 11 19:01:17 2016
 By admin
</metadata>
<defs>
<font id="iconfont" horiz-adv-x="1024" >
  <font-face 
    font-family="iconfont"
    font-weight="500"
    font-stretch="normal"
    units-per-em="1024"
    panose-1="2 0 6 3 0 0 0 0 0 0"
    ascent="896"
    descent="-128"
    x-height="792"
    bbox="-179 -164 1069 896.47"
    underline-thickness="0"
    underline-position="0"
    unicode-range="U+0078-E6DC"
  />
<missing-glyph 
 />
    <glyph glyph-name=".notdef" 
 />
    <glyph glyph-name=".notdef" 
 />
    <glyph glyph-name=".null" horiz-adv-x="0" 
 />
    <glyph glyph-name="nonmarkingreturn" horiz-adv-x="341" 
 />
    <glyph glyph-name="x" unicode="x" horiz-adv-x="1001" 
d="M281 543q-27 -1 -53 -1h-83q-18 0 -36.5 -6t-32.5 -18.5t-23 -32t-9 -45.5v-76h912v41q0 16 -0.5 30t-0.5 18q0 13 -5 29t-17 29.5t-31.5 22.5t-49.5 9h-133v-97h-438v97zM955 310v-52q0 -23 0.5 -52t0.5 -58t-10.5 -47.5t-26 -30t-33 -16t-31.5 -4.5q-14 -1 -29.5 -0.5
t-29.5 0.5h-32l-45 128h-439l-44 -128h-29h-34q-20 0 -45 1q-25 0 -41 9.5t-25.5 23t-13.5 29.5t-4 30v167h911zM163 247q-12 0 -21 -8.5t-9 -21.5t9 -21.5t21 -8.5q13 0 22 8.5t9 21.5t-9 21.5t-22 8.5zM316 123q-8 -26 -14 -48q-5 -19 -10.5 -37t-7.5 -25t-3 -15t1 -14.5
t9.5 -10.5t21.5 -4h37h67h81h80h64h36q23 0 34 12t2 38q-5 13 -9.5 30.5t-9.5 34.5q-5 19 -11 39h-368zM336 498v228q0 11 2.5 23t10 21.5t20.5 15.5t34 6h188q31 0 51.5 -14.5t20.5 -52.5v-227h-327z" />
    <glyph glyph-name="shezhi" unicode="&#xe603;" 
d="M1017 290q2 -12 -1 -29.5t-10.5 -35.5t-17.5 -32.5t-22.5 -20.5t-21.5 -6t-20 4q-11 3 -26 5.5t-31 1t-32 -6.5t-27 -17q-25 -26 -29 -59t9 -62q11 -21 -3 -41q-6 -8 -19 -17t-29 -16t-33.5 -11t-30.5 -4q-9 0 -17.5 7t-11.5 15h-1q-11 32 -38 55t-63 23q-35 0 -63 -23
t-40 -54q-5 -12 -15 -17.5t-23 -5.5q-14 0 -32 5t-36 12.5t-32 18t-21 20.5q-6 7 -6.5 17t8.5 27q11 24 8.5 54t-26.5 56q-14 15 -34.5 19.5t-39.5 3.5q-21 -1 -44 -8q-14 -4 -28 2q-12 4 -21.5 19t-17 33t-12 37t-1.5 31q3 22 20 28q31 13 55.5 41t24.5 63q0 36 -24.5 62.5
t-55.5 38.5q-9 3 -15 15t-6 24q0 13 4 29.5t10.5 32t15 28.5t19.5 19q8 5 15.5 4t16.5 -4q31 -13 64.5 -8t58.5 29q13 13 18.5 30.5t7 35t0 32t-2.5 20.5q-2 6 -3.5 14.5t1.5 14.5q6 14 22 24.5t34.5 18t35.5 11t28 3.5q13 0 20.5 -8.5t10.5 -18.5q12 -27 37.5 -48t60.5 -21
t63 20t39 50q4 9 13 17.5t18 8.5q14 0 31 -4t33.5 -11.5t30 -18.5t21.5 -24q6 -9 4 -18.5t-5 -13.5q-13 -30 -8 -62.5t30 -57t60.5 -27.5t66.5 12q8 5 20 4t20 -9q15 -15 27 -44t16 -59q2 -17 -5.5 -27t-16.5 -13q-31 -11 -53.5 -39t-22.5 -64q0 -35 18.5 -61t49.5 -37
q7 -5 12 -9q12 -9 16 -23zM541 198q46 0 87 17t71 48t47.5 71.5t17.5 86.5t-17.5 86.5t-47.5 70.5t-71 47.5t-87 17.5t-86.5 -17.5t-71 -47.5t-48 -70.5t-17.5 -86.5t17.5 -86.5t48 -71.5t71 -48t86.5 -17z" />
    <glyph glyph-name="tuichu" unicode="&#xe600;" horiz-adv-x="1000" 
d="M1000 461l-191 -176v114h-314v124h314v114zM674 855h-576l307 -130v-616h269v248h45v-290h-314v-171l-405 171v829h719v-332h-45v291v0zM674 855z" />
    <glyph glyph-name="icon" unicode="&#xe602;" 
d="M696 329h-156v155q0 11 -8 19t-19.5 8t-19.5 -8t-8 -19v-155h-155q-11 0 -19 -8t-8 -19.5t8 -19.5t19 -8h155v-155q0 -12 8 -20t19.5 -8t19.5 8t8 20v155h156q11 0 19 8t8 19.5t-8 19.5t-19 8v0zM513 750q-91 0 -174 -35.5t-143 -96t-96 -143.5t-36 -174t36 -174t96 -143
t143 -95.5t174 -35.5t174 35.5t143 95.5t95.5 143t35.5 174t-35.5 174t-95.5 143.5t-143 96t-174 35.5v0zM513 -91q-107 0 -197 52.5t-142.5 143t-52.5 197t52.5 197t142.5 143t196.5 52.5t197 -52.5t143 -143t52.5 -197t-52.5 -197t-143 -143t-196.5 -52.5v0zM513 -91z" />
    <glyph glyph-name="shijian" unicode="&#xe608;" 
d="M512 768q-159 0 -271.5 -112.5t-112.5 -271.5t112.5 -271.5t271.5 -112.5t271.5 112.5t112.5 271.5t-112.5 271.5t-271.5 112.5zM512 64q-132 0 -226 94t-94 226t94 226t226 94t226 -94t94 -226t-94 -226t-226 -94zM661 290l-133 77v209q0 13 -9.5 22.5t-22.5 9.5
t-22.5 -9.5t-9.5 -22.5v-224q0 -13 24 -27q2 -3 15 -11l132 -80q11 -6 22.5 -2.5t17.5 14.5q7 12 2.5 24.5t-16.5 19.5z" />
    <glyph glyph-name="tongzhi" unicode="&#xe646;" 
d="M512 -43q35 0 60 25t25 61h-170q0 -36 25 -61t60 -25zM789 213v235q0 97 -60 172.5t-153 97.5v29q0 26 -18.5 45t-45.5 19t-45.5 -19t-18.5 -45v-29q-93 -22 -153 -97.5t-60 -172.5v-235l-86 -85v-43h726v43z" />
    <glyph glyph-name="iconfontgonggao" unicode="&#xe614;" 
d="M464 -33q-46 42 -96 86q-52 45 -95 83q-52 43 -103 85q-9 -1 -19 -1q-8 -1 -17 -1h-16q-24 0 -39 14.5t-15 35.5v226h1l-1 1q0 25 15.5 41t38.5 16h52q82 70 149 125q29 25 56.5 47.5t50.5 41.5t37 32q16 12 19 15q27 19 43.5 17.5t26 -16t13 -35t3.5 -37.5v-726
q0 -17 -6 -36t-19 -30.5t-33 -9.5t-46 26v0zM754 499q18 -26 29.5 -52.5t11.5 -63.5q0 -36 -11.5 -64.5t-29.5 -52.5q-8 -9 -16 -17t-20 -8q-16 0 -27.5 12t-11.5 28q0 7 3 14h-1q5 10 11 19t12 18.5t10 21.5t4 29q0 16 -4 28t-10 22t-12 19t-10 19q-3 6 -3 14
q0 16 11.5 27.5t27.5 11.5q12 0 20 -7.5t16 -17.5zM804 97q-11 -8 -25 -8q-18 0 -31 13t-13 31q0 20 15 33q1 1 2 1.5t2 1.5l1 1q25 17 46.5 40t37.5 50.5t25 58.5t9 64q0 67 -34 122.5t-85 91.5q-19 13 -19 36q0 18 13 31t31 13q15 0 27 -10q33 -23 61.5 -54t49 -67.5
t32.5 -77.5t12 -85q0 -45 -12 -86t-33 -78t-49.5 -68t-62.5 -54v0z" />
    <glyph glyph-name="zuoye" unicode="&#xe633;" 
d="M501 58v648q-4 3 -10.5 8t-28.5 18t-45.5 22.5t-59 17.5t-71.5 8q-25 0 -51 -3.5t-46.5 -9.5t-39.5 -13t-33 -14t-24 -12.5t-15.5 -9.5t-4.5 -4v-656q3 2 10 6.5t29 15.5t45.5 19.5t59 15.5t70.5 7q114 0 208 -60zM963 58v648q-3 3 -10 8t-29 18t-45.5 22.5t-59 17.5
t-71 8t-70.5 -6.5t-59.5 -16.5t-44.5 -19.5t-30 -16.5l-10 -7v-656q4 2 10.5 6.5t28.5 15.5t45.5 19.5t59 15.5t71.5 7q114 0 208 -60zM1030 648h-34v-627h-396v-33h-165v33h-396v627h-33v-660h396v-33h233l-2 33h397v660z" />
    <glyph glyph-name="dianzan" unicode="&#xe66f;" 
d="M352 134q1 -2 0.5 -4t-5 -6t-13.5 -4h-87q-3 0 -6.5 0.5t-9.5 6t-6 14.5l-21 340q0 2 0.5 5.5t6 9.5t14.5 6h102q3 0 7 -1t11 -7.5t7 -17.5v-342zM757 183q-2 -7 -6 -17.5t-15.5 -28t-21.5 -17.5h-255q-19 0 -41 11.5t-22 33.5v337q5 3 13.5 10t30.5 29.5t38.5 46t30 58
t13.5 68.5q1 1 1.5 9t2.5 15t11.5 13t25.5 6q2 0 6 -1t14 -7t18.5 -15.5t16 -29.5t10 -45.5t-2 -66.5t-17.5 -90h169q1 -1 5 -0.5t10.5 -1.5t12.5 -5.5t10.5 -12.5t4.5 -21l-0.5 -8t-4 -29t-9.5 -50.5t-18.5 -80t-30.5 -110.5z" />
    <glyph glyph-name="comiisfaxiangce" unicode="&#xe661;" 
d="M847 773h-670q-49 0 -83.5 -35t-34.5 -84v-540q0 -49 34.5 -84t83.5 -35h670q49 0 83.5 35t34.5 84v540q0 49 -34.5 84t-83.5 35zM285 611q27 0 46 -19t19 -46t-19 -46t-46 -19t-46 19t-19 46t19 46t46 19zM836 157q0 -13 -9.5 -22.5t-22.5 -9.5h-582v0q-17 0 -26 12
q-10 14 -5 29q3 9 8 23t21.5 45t36 55t51 43.5t65.5 19.5q39 -1 97 -19q69 -20 111 -14q15 3 23.5 18t20.5 53q8 26 13.5 40.5t20 39.5t31.5 39t46 25t66 11q13 0 22.5 -9.5t9.5 -22.5l2 -129v-227z" />
    <glyph glyph-name="youxiangline" unicode="&#xe635;" 
d="M896 768h-768q-53 0 -90.5 -37.5t-37.5 -90.5v-576q0 -53 37.5 -90.5t90.5 -37.5h768q53 0 90.5 37.5t37.5 90.5v576q0 53 -37.5 90.5t-90.5 37.5zM128 576q0 26 19 45t45 19h640q26 0 45 -19t19 -45v-12q-290 -170 -320 -180q-42 -14 -64 -15t-64 15q-25 11 -320 182v10
zM896 128q0 -27 -19 -45.5t-45 -18.5h-640q-26 0 -45 18.5t-19 45.5v279q258 -141 308 -163q43 -17 75 -17.5t75 17.5q46 20 310 163v-279v0z" />
    <glyph glyph-name="bq" unicode="&#xe60a;" 
d="M512 -62q-91 0 -174 35.5t-143 95.5t-95.5 143t-35.5 174t35.5 174t95.5 143t143 95.5t174 35.5t174 -35.5t143 -95.5t95.5 -143t35.5 -174t-35.5 -174t-95.5 -143t-143 -95.5t-174 -35.5v0v0zM512 770q-104 0 -192.5 -51.5t-140 -140t-51.5 -192.5t51.5 -192.5t140 -140
t192.5 -51.5t192.5 51.5t140 140t51.5 192.5t-51.5 192.5t-140 140t-192.5 51.5v0v0zM513 125q-67 0 -126.5 29t-100.5 81q-8 11 -6.5 24t12 21t23.5 6.5t22 -11.5q32 -41 78 -63.5t98 -22.5q53 0 99.5 23t78.5 64q8 11 21 12.5t23.5 -6.5t12 -21t-6.5 -24
q-41 -53 -100.5 -82.5t-127.5 -29.5v0v0zM369 383q-20 0 -34 14t-14 34v64q0 20 14 34t34 14t34 -14t14 -34v-64q0 -20 -14 -34t-34 -14v0v0zM657 383q-20 0 -34 14t-14 34v64q0 20 14 34t34 14t34 -14t14 -34v-64q0 -20 -14 -34t-34 -14v0v0zM657 383z" />
    <glyph glyph-name="ziyuan" unicode="&#xe6db;" 
d="M957 384q0 91 -35 173.5t-94.5 142t-142 94.5t-173.5 35t-173.5 -35t-142 -94.5t-94.5 -142t-35 -173.5q0 -111 51 -208t140.5 -158.5t198.5 -74.5q19 -4 45 -4h15q120 2 221.5 61.5t160 161.5t58.5 222v0zM894 378q-2 33 -9 65q1 12 0 21q9 -39 9 -80v-6v0zM130 384
q0 40 8 79q13 -14 35.5 -12t29.5 21q4 -2 16.5 -7t18 -10.5t5.5 -14.5q0 -25 0.5 -40.5t4 -36.5t10 -32.5t18.5 -20.5t30 -9q2 0 10 -4.5t20 -17t19 -30.5q2 -6 9 -6t19.5 3t20.5 3q5 0 5 -5.5t-2.5 -22.5t-2.5 -33q0 -18 22.5 -44.5t44.5 -43.5l22 -17q0 -40 3 -67
q-28 0 -50 -7q-136 23 -226 129t-90 246v0zM606 15q-3 16 -26 10q8 36 11.5 49t12 30t21.5 28q17 17 16.5 32.5t-13.5 25.5t-28 7q-8 -1 -11.5 3.5t-4 10t-3.5 11t-10 5.5q-10 1 -36 25.5t-40 31.5l-20 13.5t-35 14.5q-5 0 -13 -1.5t-14.5 -3.5t-12 -3.5t-9 -0.5t-3.5 5
q0 15 -6 93q0 3 -1 5q0 1 2 1q8 -2 21 -3q8 0 12 16t11 17q7 0 31.5 -6t29.5 -2q2 1 7 -7q3 -4 10 -18q25 -45 35 -46q11 0 11 46q0 5 -1.5 16t-1.5 20.5t3 15.5q7 13 16.5 30t15.5 27.5t11.5 20.5t8 16t2 8t-8.5 3t-20.5 0t-22.5 -4q-4 -2 -3.5 -9t-5.5 -8q-21 -4 -37.5 -1
t-24.5 12t-2 19q5 7 20.5 11.5t28.5 12t15 24.5q3 28 5 68q31 -5 36 19q5 26 -25 46q-18 12 -43 15q122 -2 219.5 -73t136.5 -184q-4 4 -9 4q-15 38 -42 29q-23 -8 -26 -37q-2 -14 3 -29q-127 -98 -45 -175q23 -21 49 -63q-7 -21 10 -20q25 1 52 36q8 12 14 25
q-28 -98 -101.5 -169t-171.5 -95v0v0z" />
    <glyph glyph-name="pinglun" unicode="&#xe619;" 
d="M867 111h-186q-28 -27 -67.5 -69t-65 -71l-25.5 -29q-11 -11 -22 0q-131 136 -162 169h-182q-50 0 -86 40t-36 92v464q0 51 35 87.5t84 36.5h716q49 0 84 -36.5t35 -87.5v-464q0 -52 -36 -92t-86 -40v0zM273 522q-24 0 -41.5 -18t-17.5 -43.5t17.5 -43.5t42 -18t42 18
t17.5 43.5t-17.5 43.5t-42.5 18v0zM512 522q-25 0 -42.5 -18t-17.5 -43.5t17.5 -43.5t42.5 -18t42.5 18t17.5 43.5t-17.5 43.5t-42.5 18v0zM751 522q-25 0 -42.5 -18t-17.5 -43.5t17.5 -43.5t42 -18t42 18t17.5 43.5t-17.5 43.5t-41.5 18v0zM751 522z" />
    <glyph glyph-name="iconfontgongwenshenpi" unicode="&#xe601;" 
d="M511.5 503q11.5 0 20 8t8.5 19.5t-8.5 19.5t-20 8t-19.5 -8t-8 -19.5t8 -19.5t19.5 -8zM799 763h-577v-37h577v37zM985 670h-56v224h-838v-224h-56v-672q0 -24 15.5 -39t40.5 -15h596q214 -1 242 0q23 1 39.5 15t16.5 41q4 213 4 300zM641 231q-5 -8 -9 -12
q-14 -13 -26 -24q-20 -19 -30 -27q-9 -8 -29 -27q-16 -15 -25 -23q-6 -6 -17 -6.5t-17 5.5q-5 4 -15 14q-6 5 -17 17q-6 6 -17 16q-8 8 -12 13q-15 15 -3 27l3 3q3 2 6.5 5.5t6.5 5.5l4 3q6 6 12 4.5t11 -4.5q1 -1 7 -8l11 -11q7 -8 10 -11l8 -7q3 -5 10 -4t13 6
q16 15 33 30q28 27 35.5 33.5t14 10t14.5 -1.5q2 -1 8 -7l7 -7q7 -6 3 -13zM447 530.5q0 26.5 19 46t46 19.5t46 -19.5t19 -46t-19 -46t-46 -19.5t-46 19.5t-19 46zM873 670h-726v149h726v-149z" />
    <glyph glyph-name="chengjidan" unicode="&#xe68a;" 
d="M924 870v0h-4h-2h-405h-3h-406h-1h-4v0q-21 -2 -34.5 -15.5t-13.5 -32.5v-876q0 -20 15.5 -34.5t37.5 -14.5h867v504v421q1 19 -13 32.5t-34 15.5zM878 511q1 -3 -6 -6t-8 -5q26 -5 31 -49q5 -48 -15.5 -103t-65.5 -98.5t-101 -54.5q-7 -1 -13 -1q-28 0 -47.5 23.5
t-22.5 53.5q-4 39 12.5 84t43.5 82q28 38 72.5 69.5t70.5 34.5h2q14 1 30.5 -10.5t16.5 -19.5zM183 715q0 8 5.5 13.5t13.5 5.5h576q8 0 13.5 -5.5t5.5 -13.5v-2q0 -7 -5.5 -12.5t-13.5 -5.5h-576q-8 0 -13.5 5.5t-5.5 12.5v2v0zM612 421q5 -49 -15.5 -103.5t-65 -98.5
t-101.5 -54q-7 -1 -13 -1q-28 0 -47 23t-23 54q-4 39 12.5 84t43.5 82q33 45 89 80l0.5 0.5l0.5 0.5q1 0 2 1t2 1q14 8 18 10v0q1 0 2 0.5t2 0.5l0.5 0.5l0.5 0.5l1 0.5l1 0.5l1 0.5l1 0.5h0.5h0.5q11 5 21 6h1q14 2 30.5 -9.5t17.5 -20.5q0 -3 -6.5 -6t-7.5 -4
q27 -5 31 -49zM183 616q0 8 5.5 13t13.5 5h287q7 0 12.5 -5t5.5 -13v-2q0 -8 -5 -13.5t-13 -5.5h-287q-8 0 -13.5 5.5t-5.5 13.5v2v0zM124 166v5q-1 19 7 51t17 51q32 69 77 141l-1 1l-46 -23q-7 -6 -13 -7q-5 0 -5 9v2q0 7 3.5 13t5.5 7.5t11 8.5q71 50 83 52q8 1 17 -12
t9 -20q1 -2 1 -5q0 -10 -43 -103q-13 -29 -21 -46q-43 -95 -44 -132v-6q0 -1 1 -2q0 -2 1 -7t2 -8v-1v-1v-2v0q-1 -4 -6 -5q-3 0 -11 4q-4 1 -14.5 5t-15 6.5t-9.5 8.5t-6 15v0zM152 3q-6 3 -7 7q0 2 1.5 4.5t3.5 3.5l2 1q9 5 26.5 12.5t79 27.5t130 36.5t178.5 33.5t226 24
q-36 -5 -56 -8q74 6 115 8q-14 -1 -39.5 -3.5t-101.5 -13t-150 -24.5t-173 -38.5t-183 -54.5q-4 -1 -10 -4q-36 -15 -42 -12zM262 -11q-2 0 -5 -1.5t-11 -5t-14.5 -5.5t-12.5 -3.5t-8 -0.5q-7 3 -7 7q0 2 1.5 4.5t3.5 3.5l2 1q9 5 26.5 12.5t78.5 27.5t129.5 36.5
t178.5 33.5t227 24q-37 -5 -56 -8q73 6 114 8q-3 0 -37.5 -3.5t-104 -13.5t-147.5 -24t-176 -38.5t-182 -54.5zM523 503q0 1 1 1h1h-1t-1 -1zM548 511h-1q-10 -2 -21 -6q13 5 21 6h1zM516 500v0v0zM519 502h1v1q0 -1 -1 -1zM348 241q-4 39 12 84t43 82q34 46 90 80
q-56 -34 -90 -80q-27 -37 -43.5 -82t-11.5 -84q3 -30 22.5 -53.5t47.5 -23.5q-28 0 -47.5 23.5t-22.5 53.5zM494 488q1 1 2 1.5l1 0.5zM686 438q-27 -37 -43.5 -82t-12.5 -85q4 -30 23 -53t47 -23q-27 0 -46.5 23t-22.5 53q-5 40 11.5 84.5t43.5 82.5q28 37 73 68.5t71 34.5
h1h-2q-25 -3 -70 -34.5t-73 -68.5zM796 715q0 8 -5.5 13.5t-12.5 5.5q7 0 12.5 -5.5t5.5 -13.5zM507 616q0 8 -5 13t-13 5q7 0 12.5 -5.5t5.5 -12.5zM204 -20q0 -4 7 -7q-7 3 -7 7zM909 123q-14 -1 -39.5 -3.5t-101.5 -13t-149.5 -24t-173 -38.5t-183.5 -55q61 22 130 41
t130 32t120.5 24t106.5 17.5t84 11t56 6.5t20 2zM211 -11q9 5 26.5 12.5t78.5 27.5t129.5 36.5t178.5 33.5t227 24q-117 -7 -225.5 -23.5t-181 -34.5t-127.5 -36t-80.5 -28.5t-25.5 -11.5zM909 123l-115 -8q74 6 115 8zM152 19q9 5 26.5 12.5t79 27.5t130 36.5t178.5 33.5
t226 24q-352 -21 -599 -117q-41 -15 -41 -17zM194 15l9 4q-3 -1 -9 -4zM851 153q-14 -1 -39.5 -3.5t-101.5 -13t-150 -24t-173 -38.5t-183 -55q84 30 183 55t173 38.5t150 24t101.5 13t39.5 3.5v0zM145 10q0 -4 7 -7q-6 3 -7 7zM792 153q-36 -5 -56 -8zM186 134v2v1v-2v-1z
M186 133v0v0zM182 152l1 -1l-1 1v0v7v-3.5v-3.5zM180 425q71 50 83 52q8 1 17 -11.5t9 -20.5q1 -2 1 -5q0 3 -1 5q0 8 -9 20.5t-17 11.5q-14 -1 -83 -52q-8 -6 -10.5 -8.5t-6 -8t-3.5 -11.5v-2v2q0 7 3.5 12.5t5.5 7t11 8.5zM225 414v0q-47 -75 -77 -141q-9 -19 -17 -50.5
t-7 -51.5q-1 19 7 51t17 50q30 66 77 142zM858 444v3t-1 2q0 -1 0.5 -2t0.5 -3zM878 511q0 -3 -6.5 -6t-7.5 -5q26 -5 30 -49q6 -48 -14.5 -103t-65.5 -99t-102 -54q-6 -1 -12 -1q6 0 13 1q56 11 101 54.5t65.5 98.5t15.5 103q-5 44 -31 49q1 2 5 3.5t7 3t2 4.5
q-1 8 -17 19.5t-30 10.5q15 0 30.5 -11t16.5 -19zM836 474q9 1 16 -9q-7 11 -16 9q-6 0 -12 -5q6 5 12 5zM801 461q1 -9 6 -8q2 0 7 6q-6 -6 -7 -6q-5 0 -6 8q-58 -40 -86.5 -89t-27.5 -91q0 42 28 91t86 89zM836 474q-6 0 -12 -5q-3 -3 -9 -10q-6 -6 -8 -6q-6 -1 -6 8
q-57 -40 -85.5 -89t-28.5 -91v-5q0 -11 5.5 -24.5t14.5 -12.5q10 1 28.5 13.5t26.5 22.5l44 50q18 24 35.5 60.5t16.5 59.5v3t-1 2q-1 8 -6 16q-6 9 -15 8zM762 275q-8 -10 -26.5 -22.5t-28.5 -13.5q-9 -1 -14 12t-6 24v5v-5q0 -11 5.5 -24.5t14.5 -11.5q10 1 28 13.5
t27 22.5l44 49q18 25 35.5 61t16.5 59q1 -23 -16.5 -59t-35.5 -61zM824 469q-3 -3 -9 -10q0 1 2 3l4 4zM852 465q4 -6 6 -16q-1 9 -6 16zM202 734q-8 0 -13.5 -5.5t-5.5 -13.5q0 8 5.5 13.5t13.5 5.5zM778 694q8 0 13.5 5.5t5.5 13.5q0 -8 -5.5 -13.5t-13.5 -5.5zM516 500
q1 1 2 1.5l1 0.5q-1 -1 -3 -2zM525 504h0.5h0.5h-1zM521 502l1 0.5l1 0.5l-1 -0.5zM475 239q-7 -6 -10 -8q3 2 10 8zM498 490q14 8 18 10q-9 -4 -18 -10zM493 487q0 1 0.5 1t0.5 1q0 -2 -1 -2zM465 231q-6 -5 -11 -8q4 2 11 8zM524 423q-5 -1 -5 8q0 -3 1.5 -6t3.5 -2z
M596 481q-1 9 -17.5 20t-30.5 10q14 1 30.5 -10t17.5 -20q0 -3 -3 -4.5t-7 -3t-5 -3.5q26 -5 31 -49q5 -48 -15.5 -103t-65.5 -99t-102 -54q-6 -1 -12 -1q6 0 13 1q57 11 101.5 54.5t65 98.5t15.5 103q-5 44 -30 49q1 1 5 3t6.5 3.5t2.5 4.5zM519 431q-59 -41 -87.5 -91.5
t-26.5 -92.5q-2 42 26.5 92.5t87.5 91.5zM424 209q-5 -1 -9 4q4 -5 9 -4q10 1 30 14q-20 -13 -30 -14zM576 417v-2v2q-1 9 -6.5 18t-13.5 10q16 -1 20 -28zM424 209q10 1 30 14q8 5 12 8q3 2 9 8v0l1 1l2 2l1 1l1 1l44 50q18 25 35.5 61.5t16.5 59.5v2q-1 9 -6 18t-14 9h-2
q-8 -1 -18 -11l-11 -11q-6 0 -6 9q-59 -42 -87.5 -92t-26.5 -92v-2q1 -12 5 -23q0 -1 1 -3l1 -2q1 -1 2 -2.5l1 -1.5q4 -5 9 -4zM524 294q18 25 35.5 62t16.5 59q1 -22 -16.5 -59t-35.5 -62zM405 247v-2q0 -12 4 -22q-3 9 -4 22v2zM412 217l-2 6q1 -4 2 -6zM415 213
q-2 2 -3 4q2 -3 3 -4zM553 445h3h-3q-7 -1 -17 -11.5t-12 -10.5q2 0 12 10.5t17 11.5zM202 634q-8 0 -13.5 -5t-5.5 -13q0 7 5.5 12.5t13.5 5.5zM489 595q7 0 12.5 5.5t5.5 13.5q0 -8 -5.5 -13.5t-12.5 -5.5zM224 415l-46 -23q-9 -6 -13 -6q-5 -1 -5 8q0 -9 5 -9q6 1 13 7
l46 23l1 -1v0zM182 159q1 39 45 132q8 17 21 46q42 93 42 103q0 -11 -47 -113q-10 -23 -16 -36q-44 -93 -45 -132zM186 134v-1v1zM180 127.5q5 0.5 6 5.5q-1 -5 -6 -5q-6 0 -11 4q-4 1 -15 5t-15 6t-9 8.5t-6 15.5v2.5v2.5v-5q1 -9 6 -15.5t9.5 -8.5t15 -6t14.5 -6
q6 -4 11 -3.5zM183 151q0 -2 1 -7t2 -8q-1 3 -2 8t-1 7zM152 19q-1 0 -2 -1t-3 -3.5t-2 -4.5q0 2 1.5 4.5t3.5 3.5zM152 3q5 -2 42 12q-36 -15 -42 -12zM211 -27q3 -1 16 3t24 8.5l11 4.5q-2 0 -5 -1.5t-11 -5t-14.5 -5.5t-12.5 -3.5t-8 -0.5zM211 -11q-1 0 -2.5 -1t-3 -3.5
t-1.5 -4.5q0 2 1.5 4.5t3.5 3.5z" />
    <glyph glyph-name="zuoyeyutongzhi" unicode="&#xe615;" 
d="M731 -58h-535q-44 0 -72 42q-14 19 -19 39l-1 3v488l296 296h205v-41h-188l-272 -272v-465q3 -9 7.5 -18t17 -20t26.5 -11h529q9 3 18 8t20.5 19.5t11.5 32.5v315h40v-315q0 -49 -42 -80q-19 -14 -40 -20l-2 -1v0zM270 329h301v-41h-301v41zM270 175h405v-41h-405v41z
M738 745q-3 -1 -8.5 -2.5t-19.5 -11.5t-24.5 -24.5t-20 -42.5t-10.5 -65l-39 -124q0 -21 22 -28h58q0 -2 1 -5.5t5 -12.5t10.5 -16t18 -13t26.5 -7q2 0 5.5 0.5t13 3t17.5 7.5t17 16t13 27h56q1 0 3 1t6.5 3.5t7 6.5t4.5 10.5t-1 13.5l-36 117v8t-1.5 19.5t-5 28.5t-13 32
t-22.5 34q-37 36 -83 24zM732 724l-7 15q-6 10 -6 22q0 18 13.5 31.5t32.5 13.5t32.5 -13.5t13.5 -31.5q0 -11 -5 -21l-7 -15l-16 5q-18 4 -34 -1z" />
    <glyph glyph-name="xiaoxitongzhi" unicode="&#xe681;" 
d="M972 787q-6 30 -38 30h-817q-6 0 -10 -1q-28 -6 -28 -39v-492q8 -32 38 -40h462v-163q8 -32 40 -40q19 3 29 14l161 189h125q5 0 9 1q31 6 31 39v492q0 6 -2 10zM607 395q-4 -2 -11 -2v0h-342q-36 10 -46 48q0 40 35 46q4 3 11 3h342q39 0 46 -38q2 -4 2 -11
q0 -39 -37 -46zM607 593q-4 -2 -11 -2h-342q-36 10 -46 48q0 40 35 47q4 2 11 2h342q39 0 46 -38q2 -4 2 -11q0 -39 -37 -46zM769 395q-4 -2 -11 -2q-39 0 -46 37q-2 5 -2 11q0 40 37 46q5 3 11 3q40 0 46 -38q3 -4 3 -11q0 -39 -38 -46zM769 593q-4 -2 -11 -2q-39 0 -46 37
q-2 5 -2 11q0 40 37 47q5 2 11 2q40 0 46 -38q3 -4 3 -11q0 -39 -38 -46z" />
    <glyph glyph-name="gongxiang" unicode="&#xe654;" 
d="M760 189q-60 0 -103 -42l-267 182q17 31 17 67q0 28 -10 53l257 175q41 -44 103 -44q61 0 104.5 42.5t43.5 102.5t-42 99.5t-103 39.5q-59 0 -101.5 -41.5t-42.5 -100.5q0 -12 2 -24l-278 -182q-35 22 -77 22q-59 0 -101.5 -41.5t-42.5 -100.5t42.5 -100.5t101.5 -41.5
q33 0 62 14l293 -192q-3 -15 -3 -30q0 -59 42.5 -100.5t102.5 -41.5t102.5 41.5t42.5 100.5t-42.5 101t-102.5 42v0zM760 189z" />
    <glyph glyph-name="shangbanhaoxinqing" unicode="&#xe613;" 
d="M512 830q-91 0 -173.5 -35.5t-142.5 -95t-95.5 -142t-35.5 -173.5t35.5 -173.5t95.5 -142t142.5 -95t173.5 -35.5t173.5 35.5t142.5 95t95.5 142t35.5 173.5t-35.5 173.5t-95.5 142t-142.5 95t-173.5 35.5v0zM673 630q33 0 56.5 -23.5t23.5 -57t-23.5 -57t-56.5 -23.5
t-56.5 23.5t-23.5 57t23.5 57t56.5 23.5v0zM351 630q33 0 56.5 -23.5t23.5 -57t-23.5 -57t-56.5 -23.5t-56.5 23.5t-23.5 57t23.5 57t56.5 23.5v0zM512 75q-120 0 -208.5 81t-99.5 200h616q-11 -119 -99.5 -200t-208.5 -81v0z" />
    <glyph glyph-name="see-icon-m3-new-fill" unicode="&#xe634;" 
d="M393 -102h516v961h-819v-961h303zM678 575l35 160h36l35 -160l36 160h36l-36 -214h-53l-38 162l-34 -162h-53l-36 214h36zM571 735v-36h-107v-53h107v-36h-107v-53h107v-36h-143v214h143zM268 735l71 -143v143h54v-214h-54l-73 146l2 -146h-53v214h53zM464 432v-53h-249
v53h249zM215 236v54h249v-54h-249zM215 147h249v-53h-249v53zM535 432h285v-338h-285v338z" />
    <glyph glyph-name="xueshengqingjia" unicode="&#xe6cf;" horiz-adv-x="1045" 
d="M281 311l-67 50l138 137v222h87v-251zM706 739q-68 91 -175 132t-221 16q-104 -22 -181.5 -92.5t-110 -169.5t-9.5 -203q26 -120 114 -203t205 -102l61 87q-104 1 -186 67t-104 170q-17 79 7.5 155t83.5 130t139 71t155.5 -8t129.5 -83zM685 730zM433 -87q-12 0 -20 8
t-8 20v64q0 98 54.5 178.5t146.5 116.5l8 3l-7 5q-34 27 -53.5 66t-19.5 83q0 78 56 133.5t134.5 55.5t134.5 -55.5t56 -133.5q0 -44 -19 -83t-54 -66l-6 -5l7 -3q92 -36 147 -116.5t55 -178.5v-64q0 -12 -8.5 -20t-19.5 -8h-584z" />
    <glyph glyph-name="biaodan" unicode="&#xe69e;" 
d="M404 602h215q23 0 38.5 15.5t15.5 37.5v107h-107v54h-108v-54h-107v-107q0 -22 15.5 -37.5t37.5 -15.5v0zM458 709h108v-54h-108v54zM297 121h430v481h-54q0 -22 -15.5 -38t-38.5 -16h-215q-22 0 -37.5 16t-15.5 38h-54v-481zM351 495h322v-54h-322v54zM351 388h215v-54
h-215v54zM351 281h268v-53h-268v53zM834 762h-107v-107h54v-588h-538v588h54v107h-108q-22 0 -37.5 -15.5t-15.5 -37.5v-695q0 -23 15.5 -38.5t37.5 -15.5h645q23 0 38.5 15.5t15.5 38.5v695q0 22 -15.5 37.5t-38.5 15.5v0z" />
    <glyph glyph-name="gongzuorizhi" unicode="&#xe6dc;" 
d="M914 -128h-768q-30 0 -51.5 21.5t-21.5 51.5v146h73q15 0 26 11t11 26v37q0 15 -11 25.5t-26 10.5h-73v73h73q15 0 26 11t11 26v36q0 16 -11 26.5t-26 10.5h-73v73h73q15 0 26 11t11 26v36q0 15 -11 26t-26 11h-73v73h73q15 0 26 10.5t11 26.5v36q0 15 -11 26t-26 11h-73
v73q0 30 21.5 51.5t51.5 21.5h622q30 0 51.5 -21.5t21.5 -51.5h73q31 0 52 -21.5t21 -51.5v-805q0 -30 -21 -51.5t-52 -21.5v0zM745 668l-65 36q-11 7 -27.5 2.5t-23.5 -15.5l-281 -473l130 -73l281 473q7 12 2.5 27.5t-16.5 22.5zM329 186v-131l130 58zM914 713
q0 27 -5 42.5t-17 22t-21.5 7.5t-29.5 1v-731q0 -30 -21.5 -51.5t-51.5 -21.5h-658q0 -31 21.5 -52t51.5 -21h658q26 0 41.5 5t22 16.5t8 22t1.5 29.5v731zM146 677h-109v36h109v-36zM146 494h-109v36h109v-36zM146 311h-109v36h109v-36zM146 128h-109v37h109v-37z" />
    <glyph glyph-name="ketangzaixiaoqingkuangdengji" unicode="&#xe60e;" 
d="M270 598q12 -37 36.5 -51.5t49 0t36.5 51.5q6 4 12 12.5t7 16.5q3 26 -11 26q-2 30 -19 49t-49.5 19t-50 -18t-19.5 -50q-14 0 -11 -26q1 -8 6.5 -16.5t12.5 -12.5v0zM434 152v27q23 0 38.5 16t15.5 38v2l210 210q10 10 -0.5 20t-20.5 0l-189 -189v179q0 29 -19 51.5
t-49 28.5l-29 6l-60 -120l-61 120l-29 -6q-29 -6 -48 -28.5t-19 -51.5v-222q0 -22 15.5 -38t37.5 -16v-27h207zM3 339q0 -62 44 -106t106 -44h1q-12 21 -12 44v21q-32 4 -53.5 28t-21.5 57v407q0 36 25 61t61 25h715q36 0 61 -25t25 -61v-407q0 -36 -25 -61t-61 -25h-317
l-32 -32q-3 -16 -13 -32h362q62 0 106 44t44 106v407q0 62 -44 106t-106 44h-715q-62 0 -106 -44t-44 -106v-407v0zM213 100h-112q-41 0 -69.5 -29t-28.5 -69v-130h308v130q0 40 -29 69t-69 29v0zM568 100h-112q-41 0 -69.5 -29t-28.5 -69v-130h308v130q0 40 -28.5 69
t-69.5 29v0zM923 100h-112q-40 0 -69 -29t-29 -69v-130h308v130q0 40 -28.5 69t-69.5 29v0z" />
    <glyph glyph-name="geren" unicode="&#xe606;" 
d="M276 547q8 -68 63.5 -126.5t109.5 -58.5q60 0 117.5 59.5t66.5 125.5q11 8 15 29q1 4 2 10t3 19t-0.5 20.5t-10.5 5.5q5 15 8 31.5t5 44t-9 54.5t-34 45q-35 31 -86.5 51.5t-85.5 25.5l-33 5l1 8q-4 3 -29 -21q-3 -1 -8.5 -3.5t-19.5 -12.5t-26.5 -21t-26 -30.5
t-19.5 -40.5q-2 -2 -3.5 -5t-5.5 -14.5t-5.5 -25.5t-0.5 -39t6 -53q-20 9 -14 -31l5 -23q3 -21 15 -29zM809 254q-10 22 -50 45t-74 35l-35 13q-20 7 -35 15t-22 14t-11 11t-5 8v3q-45 -89 -92 -115q-5 -4 -20.5 -5.5t-27.5 -1.5h-12q-20 5 -37 19.5t-28 31.5t-19.5 33
t-11.5 26l-4 11q-4 -17 -43 -37.5t-76 -32.5l-38 -13q-42 -16 -61 -41q-28 -42 -45.5 -118t-21.5 -131l-4 -55q1 -38 17 -50h803q4 4 6.5 8t2.5 6l1 1q4 46 0.5 91t-13 86.5t-19.5 73t-18 50.5z" />
    <glyph glyph-name="richengshili" unicode="&#xe61a;" 
d="M320 638q13 0 22 9t9 22v137q0 12 -9 21t-22 9t-22 -9t-9 -21v-137q0 -13 9 -22t22 -9zM706 638q13 0 22 9t9 22v137q0 12 -9 21t-22 9t-22 -9t-9 -21v-137q0 -13 9 -22t22 -9zM868 737h-121v-68q0 -17 -12 -29t-29 -12t-29 12t-12 29v68h-304v-68q0 -17 -12 -29t-29 -12
t-29 12t-12 29v68h-121q-12 0 -20.5 -8.5t-8.5 -20.5v-131h768v131q0 12 -8.5 20.5t-20.5 8.5zM129 -33q0 -12 8.5 -20.5t20.5 -8.5h710q12 0 20.5 8.5t8.5 20.5v549h-768v-549zM569.5 341q22.5 39 78 39t77.5 -39t22 -111t-22 -110.5t-77.5 -38.5t-78 38.5t-22.5 110.5
t22.5 111zM395 210q-14 5 -42 5v41q28 0 39 5q19 9 19 34q0 17 -10 27.5t-27 10.5q-20 0 -29.5 -13t-9.5 -34h-53q1 21 7 41q7 17 22 31q12 10 27 15.5t38 5.5q41 0 66.5 -21.5t25.5 -57.5q0 -26 -15 -43q-10 -11 -20 -15q8 0 22 -13q22 -21 22 -56q0 -36 -25.5 -64
t-75.5 -28q-61 0 -85 40q-13 21 -14 56h56q0 -17 5 -29q11 -21 38 -21q17 0 29.5 11.5t12.5 33.5q0 28 -23 38v0zM647.5 127q25.5 0 33 26.5t7.5 76.5q0 52 -7.5 77.5t-33 25.5t-33.5 -25.5t-8 -77.5q0 -50 8 -76.5t33.5 -26.5z" />
    <glyph glyph-name="icon-approve-bold" unicode="&#xe61d;" 
d="M422 294v109q-60 26 -97 81.5t-37 123.5q0 93 65.5 158.5t158.5 65.5t158.5 -65.5t65.5 -158.5q0 -68 -37 -123.5t-97 -81.5v-109h201q47 0 79.5 -32.5t32.5 -79.5v-112h-806v112q0 47 33 79.5t79 32.5h201zM154 26h716v-90h-716v90z" />
    <glyph glyph-name="xietongbangong" unicode="&#xe62f;" horiz-adv-x="1068" 
d="M932 139q-281 206 -628 273q113 -37 189 -60t115.5 -33.5t58.5 -12t22 0.5t3 9v1q0 27 20 45q60 85 60 191q0 35 -7 68q-3 61 -35 113t-84 83q23 35 58.5 56t76.5 22q60 -3 103.5 -46.5t45.5 -104.5q3 -30 2 -61t-5.5 -59t-22.5 -56t-49 -51q-14 -16 -14 -37.5t14 -38.5
q2 -2 29 -19.5t59.5 -39.5t69 -58t56.5 -72v-113h-137zM623 317q-15 -19 -15 -44t15 -45q3 -3 51.5 -23t106 -46.5t117 -69t81.5 -83.5v-134h-890v134q18 34 62 69.5t92 61.5t95.5 47.5t76 32.5t30.5 11q16 20 16 45t-16 44q-89 66 -89 267q0 74 52 126t126 52t126 -52
t52 -126q0 -9 0.5 -35.5t0.5 -37t-1.5 -34t-5 -35.5t-10 -32t-16 -33.5t-24 -29.5t-33.5 -30zM303 619q-2 -5 -5 -13t-6 -35t0.5 -55t19 -70.5t44.5 -83.5q19 -19 19 -45t-19 -44q-319 -162 -535 -437l179 303v113q16 30 43.5 60t55.5 52t55 40.5t42.5 27.5t17.5 9
q13 17 13 38.5t-13 37.5q-25 18 -41.5 48t-23 60t-9.5 57.5t-3 44.5l1 17q2 61 46 105t105 46q42 -2 76.5 -23.5t54.5 -57.5q-52 -32 -83.5 -84.5t-33.5 -115.5v5z" />
    <glyph glyph-name="jieda" unicode="&#xe628;" 
d="M505 879q89 0 168 -33.5t139 -94.5q109 -110 124 -267t-73 -285q-71 -105 -193 -157l-138 -140q-11 -11 -27 -11t-27 11v2l-138 138q-121 50 -193 157q-88 128 -73.5 285.5t124.5 266.5q60 61 139 94.5t168 33.5zM468 174q0 -16 11.5 -27.5t27.5 -11.5t27.5 11.5
t11.5 27.5t-11.5 27.5t-27.5 11.5t-27.5 -11.5t-11.5 -27.5zM412 543q0 37 27 64q10 12 31 20q25 9 37 9q37 0 64 -27l18 -25q14 -26 11 -53q-4 -30 -25 -48q-10 -10 -23 -16q-38 -20 -57 -46q-29 -39 -29 -101q0 -17 11 -28t28 -11t29 12t12 29q0 38 13 54q8 10 33 23
q25 14 39 31q37 37 47 94q7 53 -19 103q-13 25 -30 42q-50 49 -120 49q-39 0 -68 -14q-28 -12 -57 -37q-50 -53 -50 -122q0 -17 11 -28t28 -11t28 10.5t11 26.5z" />
  </font>
</defs>
</svg>
