<?xml version="1.0" standalone="no"?>
<!DOCTYPE svg PUBLIC "-//W3C//DTD SVG 1.1//EN" "http://www.w3.org/Graphics/SVG/1.1/DTD/svg11.dtd" >
<svg xmlns="http://www.w3.org/2000/svg">
<metadata>
Created by FontForge 20120731 at Fri Mar  3 15:19:02 2017
 By admin
</metadata>
<defs>
<font id="iconfont" horiz-adv-x="1024" >
  <font-face 
    font-family="iconfont"
    font-weight="500"
    font-stretch="normal"
    units-per-em="1024"
    panose-1="2 0 6 3 0 0 0 0 0 0"
    ascent="896"
    descent="-128"
    x-height="792"
    bbox="6 -102 1283 894"
    underline-thickness="0"
    underline-position="0"
    unicode-range="U+0078-E69E"
  />
<missing-glyph 
 />
    <glyph glyph-name=".notdef" 
 />
    <glyph glyph-name=".notdef" 
 />
    <glyph glyph-name=".null" horiz-adv-x="0" 
 />
    <glyph glyph-name="nonmarkingreturn" horiz-adv-x="341" 
 />
    <glyph glyph-name="x" unicode="x" horiz-adv-x="1001" 
d="M281 543q-27 -1 -53 -1h-83q-18 0 -36.5 -6t-32.5 -18.5t-23 -32t-9 -45.5v-76h912v41q0 16 -0.5 30t-0.5 18q0 13 -5 29t-17 29.5t-31.5 22.5t-49.5 9h-133v-97h-438v97zM955 310v-52q0 -23 0.5 -52t0.5 -58t-10.5 -47.5t-26 -30t-33 -16t-31.5 -4.5q-14 -1 -29.5 -0.5
t-29.5 0.5h-32l-45 128h-439l-44 -128h-29h-34q-20 0 -45 1q-25 0 -41 9.5t-25.5 23t-13.5 29.5t-4 30v167h911zM163 247q-12 0 -21 -8.5t-9 -21.5t9 -21.5t21 -8.5q13 0 22 8.5t9 21.5t-9 21.5t-22 8.5zM316 123q-8 -26 -14 -48q-5 -19 -10.5 -37t-7.5 -25t-3 -15t1 -14.5
t9.5 -10.5t21.5 -4h37h67h81h80h64h36q23 0 34 12t2 38q-5 13 -9.5 30.5t-9.5 34.5q-5 19 -11 39h-368zM336 498v228q0 11 2.5 23t10 21.5t20.5 15.5t34 6h188q31 0 51.5 -14.5t20.5 -52.5v-227h-327z" />
    <glyph glyph-name="chengjifenxi" unicode="&#xe603;" 
d="M98 783h-34v-830h899v34l-864 1zM548 749q0 14 -10 24t-24 10h-104q-15 0 -25 -10t-10 -24v-692h173v692zM341 541q0 15 -10.5 25t-24.5 10h-104q-14 0 -24 -10t-10 -25v-484h173v484zM756 334q0 14 -10.5 24t-24.5 10h-104q-14 0 -24 -10t-10 -24v-277h173v277zM929 161
h-104q-15 0 -25 -10t-10 -25v-69h173v69q0 15 -10 25t-24 10z" />
    <glyph glyph-name="icon" unicode="&#xe61e;" 
d="M596 313v57h-28v-28h-29v28h-28v-57h-28v57h-28v-28l-28 -1v29h-23l-89 -196h364l-57 139h-26zM849 369l28 1v-28l30 -1l-2 29h27q12 0 20 -7.5t8 -18.5v-144q0 -13 -9.5 -19.5t-18.5 -6.5l-10 1q1 13 -14 26.5t-30 20.5l-15 6l-61 113l47 1v27zM90 180q-26 14 -26 47
v115v27l29 -1l-2 -27h29v28h27v-28h29zM402 657q-3 2 -8 4.5t-15.5 0.5t-16.5 -15l-27 -58l117 -62l29 60q0 1 1 2.5t2 6t0 9t-5 9.5t-11 8zM318 557l-194 -374l125 -48l194 365zM121 58v-52l42 32zM120 157l1 -70l64 -28l50 54zM574 661q-32 48 -54 74t-28 27l-5 1
q-4 -3 -2 -23t10.5 -54t18.5 -57q124 -278 166 -366l42 -96l102 62zM741 146l93 55q2 -1 4.5 -2t11.5 -5t16 -9t16.5 -13.5t13.5 -18t7 -23.5t-3 -30q-16 -64 37 -87l11 -3q-4 -1 -10.5 -2.5t-25.5 -2.5t-36.5 0.5t-40 10t-40.5 23t-33 42t-21 65.5z" />
    <glyph glyph-name="iconlz04" unicode="&#xe624;" 
d="M813 407q-44 135 -75 190q-20 37 -76 -76q-15 -31 -42 -94q-12 -27 -16 -37q-23 -49 -92 46l-28 40q-9 11 -25 -14t-35 -61.5t-30 -44.5q-18 -14 -37.5 -22.5t-44 -5.5t-38.5 28q-13 24 -28 36.5t-23 13.5l-9 1v-155h599v155zM605 670h-381v-37h381v37zM768 770v36h-82
v-36h-345v36h-81v-36h-118v-590h118v-218h81v218h345v-218h82v218h118v590h-118zM831 234h-635v481h635v-481zM505 597h-281v-36h281v36z" />
    <glyph glyph-name="tongzhi" unicode="&#xe646;" 
d="M512 -43q35 0 60 25t25 61h-170q0 -36 25 -61t60 -25zM789 213v235q0 97 -60 172.5t-153 97.5v29q0 26 -18.5 45t-45.5 19t-45.5 -19t-18.5 -45v-29q-93 -22 -153 -97.5t-60 -172.5v-235l-86 -85v-43h726v43z" />
    <glyph glyph-name="iconfontgonggao" unicode="&#xe614;" 
d="M464 -33q-46 42 -96 86q-52 45 -95 83q-52 43 -103 85q-9 -1 -19 -1q-8 -1 -17 -1h-16q-24 0 -39 14.5t-15 35.5v226h1l-1 1q0 25 15.5 41t38.5 16h52q82 70 149 125q29 25 56.5 47.5t50.5 41.5t37 32q16 12 19 15q27 19 43.5 17.5t26 -16t13 -35t3.5 -37.5v-726
q0 -17 -6 -36t-19 -30.5t-33 -9.5t-46 26v0zM754 499q18 -26 29.5 -52.5t11.5 -63.5q0 -36 -11.5 -64.5t-29.5 -52.5q-8 -9 -16 -17t-20 -8q-16 0 -27.5 12t-11.5 28q0 7 3 14h-1q5 10 11 19t12 18.5t10 21.5t4 29q0 16 -4 28t-10 22t-12 19t-10 19q-3 6 -3 14
q0 16 11.5 27.5t27.5 11.5q12 0 20 -7.5t16 -17.5zM804 97q-11 -8 -25 -8q-18 0 -31 13t-13 31q0 20 15 33q1 1 2 1.5t2 1.5l1 1q25 17 46.5 40t37.5 50.5t25 58.5t9 64q0 67 -34 122.5t-85 91.5q-19 13 -19 36q0 18 13 31t31 13q15 0 27 -10q33 -23 61.5 -54t49 -67.5
t32.5 -77.5t12 -85q0 -45 -12 -86t-33 -78t-49.5 -68t-62.5 -54v0z" />
    <glyph glyph-name="iconfontshujuzidian" unicode="&#xe62b;" 
d="M680 86q-28 -13 -58 -17q-16 -2 -41 0h-2q-78 7 -129.5 64t-51.5 135q0 83 59 142q28 27 66.5 42.5t79.5 14.5q62 0 127 -42v282q0 13 -11 24t-24 11l-529 1q0 9 7.5 18t14.5 13l8 5h535q12 1 20.5 -3t12.5 -10t6 -12.5t2 -10.5v-5v-345q0 -15 17 -57.5t17 -67.5
q0 -42 -18 -83l26 -22l-1 621q0 16 -15.5 27t-24.5 10h-583q-25 0 -42.5 -8.5t-26 -20.5t-13 -24t-5.5 -20v-8v-742q0 -4 0.5 -6.5t2.5 -4t3.5 -2.5t5 -1.5t5.5 -0.5t6.5 0.5t7.5 0.5h634l-88 102v0zM270 611h293v-41h-293v41zM913 -4l-180 180q29 41 29 92q1 67 -46.5 115
t-115 48t-115 -47t-47.5 -114q0 -66 45.5 -114.5t115.5 -46.5q36 1 61.5 10t32.5 17l180 -180q8 -9 20 -9t20 8.5t8 20t-8 20.5v0v0zM600 147q-51 0 -86.5 36t-35 86t36 85.5t86 35.5t86 -35.5t35.5 -86t-36 -86t-86 -35.5v0zM600 147z" />
    <glyph glyph-name="zuoye" unicode="&#xe633;" 
d="M501 58v648q-4 3 -10.5 8t-28.5 18t-45.5 22.5t-59 17.5t-71.5 8q-25 0 -51 -3.5t-46.5 -9.5t-39.5 -13t-33 -14t-24 -12.5t-15.5 -9.5t-4.5 -4v-656q3 2 10 6.5t29 15.5t45.5 19.5t59 15.5t70.5 7q114 0 208 -60zM963 58v648q-3 3 -10 8t-29 18t-45.5 22.5t-59 17.5
t-71 8t-70.5 -6.5t-59.5 -16.5t-44.5 -19.5t-30 -16.5l-10 -7v-656q4 2 10.5 6.5t28.5 15.5t45.5 19.5t59 15.5t71.5 7q114 0 208 -60zM1030 648h-34v-627h-396v-33h-165v33h-396v627h-33v-660h396v-33h233l-2 33h397v660z" />
    <glyph glyph-name="renshiguanli" unicode="&#xe659;" 
d="M626 722q23 -5 36 -24q14 -19 16 -46q0 -14 2 -27q0 -7 1 -20t1 -19q0 -26 -2 -37q-3 -19 -5 -21q-7 -7 -11 -5q-6 0 -6 -6q0 -9 -1 -20q-1 -2 -3.5 -19t-4.5 -29q-2 -15 -11 -30q-12 -20 -14.5 -23.5t-9 -11t-8.5 -11.5q0 -5 -1 -12.5t-1 -11.5v-20q0 -13 2 -17
q0 -11 5 -16q3 -3 18 -10q6 -2 17 -5q5 -1 29 -9q3 -2 16 -6.5t20 -6.5t18.5 -6.5t18.5 -6.5q21 -7 31 -11q4 -2 11 -4.5t9 -3.5q19 -8 25 -20q6 -11 11 -28q3 -7 6 -31q0 -7 3 -23t4 -25q0 -2 2.5 -20.5t2.5 -27.5q0 -20 4 -28q0 -15 -4 -22q-7 -11 -23 -13q-40 -7 -48 -7
q-20 -4 -71 -8q-84 -5 -89 -5q-16 0 -50.5 -1t-53.5 -1q-71 0 -104 2q-52 3 -91 5q-16 1 -42 4t-31 4q-43 7 -49 9q-2 0 -9 3q-8 4 -11 8q-6 6 -8 11q-1 4 -1 15q0 7 5 29q2 9 4.5 25.5t4.5 24.5q6 28 11 50l7 30q4 13 11 24t24 26q10 6 31 14q8 3 24.5 8t22.5 7
q4 1 21.5 5.5t26.5 5.5q12 2 29 8q18 3 26 7q10 6 10 13v55l-9.5 9.5t-10.5 9.5q-5 5 -16 20q-9 13 -15 26q-13 25 -16 48q-2 20 -5 26q0 1 -2.5 3t-5.5 2q-6 4 -9 10q-7 15 -7 35q0 5 1 22t1 30q3 34 11 64q7 28 36 58q11 11 38 20q17 5 50 13q33 3 47 3q16 0 35 -3
q5 -1 12 -4t8 -4q6 -4 12 -7q1 0 8 -7l5 -6q8 -4 13 -2q-3 0 -1 0q9 -1 16 -4v0v0v0zM810 615q14 -3 22 -13q9 -12 9 -27q0 -10 2 -17q0 -4 0.5 -11t0.5 -11q0 -15 -1 -22q0 -10 -4 -13.5t-7.5 -3.5t-3.5 -4v-13q0 -10 -5 -29q-1 -2 -2 -5.5t-2 -6.5t-2 -5q-2 -5 -9 -13
q-2 -1 -5.5 -6t-5.5 -7q0 -2 -1 -7t-1 -7v-23q0 -5 4 -9q3 -3 11 -5q4 0 18 -6q9 -4 31 -11t31 -11q5 -2 11.5 -4.5t8.5 -2.5q12 -7 16 -13q6 -6 6 -17q0 -2 0.5 -4t1.5 -6.5t2 -8.5t1.5 -14t1.5 -15t2 -14.5t2 -13.5q2 -9 2 -16q0 -10 -2 -13q-2 -5 -15 -8q-7 -2 -25 -5
q-17 -3 -40 -6l-6 22q-5 16 -7 21q-2 7 -9 18q-8 9 -22 24q-15 11 -24 15q-22 9 -24 9q-4 1 -11.5 4t-11.5 4q-63 21 -79 24q-27 5 -32 11q-2 2 -2 7v9q0 8 2 11q15 3 20 6q1 0 5 1t5 1q3 1 7.5 2t7.5 2q7 3 7 7v33l-1 2l-4 2q-1 0 -4 5q8 19 11 30q8 23 9 37q7 27 10 54
q3 33 3 44q0 7 1 18t1 15v30q7 2 24 2q14 0 20 -2q18 -7 20 -10q1 -1 2 -2.5t3 -2.5t2 -2q2 -2 7 -2q8 0 17 -2v0v0v0zM288 638q-11 1 -31 1q-12 0 -29 -5q-18 -6 -29 -13q-10 -8 -18 -19q-8 -14 -9 -22q-4 -15 -4 -20q0 -3 -1 -8t-1 -7q0 -5 -1 -12.5t-1 -9.5q0 -13 2 -19
l4 -11q0 -2 3 -5q2 -2 6 -2l4 -13q0 -13 5 -24q7 -14 11 -20q2 -4 7.5 -9.5t7.5 -9.5l9 -9v-28q0 -5 -4 -9q-2 -2 -13 -5q-2 0 -16 -4t-24 -6q-4 -1 -12.5 -3.5t-12.5 -3.5q-6 -1 -13 -4l-7 -3q-28 -14 -33 -47q-1 -5 -9 -38q-2 -9 -4.5 -20t-3.5 -14q-3 -8 0 -20
q3 -10 17 -13q1 -1 3.5 -1.5t6 -1t6.5 -1.5q5 0 20 -3q4 -1 11 -2t11 -2q4 15 6 24q1 4 3.5 11t3.5 11q4 9 13 20q11 12 18 17l22 17q7 5 25 16q95 30 97 32q1 0 4 1t5 1l9 1q3 1 9 2t9 2q8 3 8 9v13l-17 6l-13 4q-1 0 -5 1t-5 2q-3 1 -10 8q0 1 -0.5 5.5t-0.5 8.5v10
q0 5 1 9q0 7 2 11q-9 13 -14 26q-13 25 -13 26q-7 17 -9 31q-4 15 -8 48q-1 17 -1 46q0 13 3 47v0v0v0zM288 638z" />
    <glyph glyph-name="iconfontgongwenshenpi" unicode="&#xe601;" 
d="M511.5 503q11.5 0 20 8t8.5 19.5t-8.5 19.5t-20 8t-19.5 -8t-8 -19.5t8 -19.5t19.5 -8zM799 763h-577v-37h577v37zM985 670h-56v224h-838v-224h-56v-672q0 -24 15.5 -39t40.5 -15h596q214 -1 242 0q23 1 39.5 15t16.5 41q4 213 4 300zM641 231q-5 -8 -9 -12
q-14 -13 -26 -24q-20 -19 -30 -27q-9 -8 -29 -27q-16 -15 -25 -23q-6 -6 -17 -6.5t-17 5.5q-5 4 -15 14q-6 5 -17 17q-6 6 -17 16q-8 8 -12 13q-15 15 -3 27l3 3q3 2 6.5 5.5t6.5 5.5l4 3q6 6 12 4.5t11 -4.5q1 -1 7 -8l11 -11q7 -8 10 -11l8 -7q3 -5 10 -4t13 6
q16 15 33 30q28 27 35.5 33.5t14 10t14.5 -1.5q2 -1 8 -7l7 -7q7 -6 3 -13zM447 530.5q0 26.5 19 46t46 19.5t46 -19.5t19 -46t-19 -46t-46 -19.5t-46 19.5t-19 46zM873 670h-726v149h726v-149z" />
    <glyph glyph-name="pinpai" unicode="&#xe604;" 
d="M858 379l-405 407l-389 -2l1 -360l419 -421q19 -20 47 -20t47 19l281 282q19 20 19 47.5t-20 47.5v0zM232 552q-27 0 -46.5 19.5t-19.5 47t19.5 47t47 19.5t46.5 -19.5t19 -47t-19 -47t-47 -19.5v0zM606 -23q-14 0 -26 5l4 10q37 -14 64 13l281 283q18 17 17.5 42.5
t-18.5 43.5l-403 405h-46v11l51 1l2 -2l404 -407q22 -21 22 -51t-21 -51l-281 -283q-20 -20 -50 -20v0v0zM606 -23z" />
    <glyph glyph-name="icon1" unicode="&#xe64a;" 
d="M960 525q-1 -3 -2 -4q-8 -28 -38 -28h-123h-120q-7 0 -9 -4q-3 -8 -1 -12q10 -16 -1 -32l-6 -6l-87 -87q-23 -24 -47 0l-28.5 28.5l-21.5 21.5l-6 6v-9v-156q0 -12 -3 -23q-4 -14 -18 -22q-5 -2 -5 -9v-73v-73q1 -26 -20 -33h-111q-21 7 -21 33q1 3 0.5 72.5t-0.5 73.5
q1 7 -5 9q-13 7 -16.5 20t-3.5 25v156v9l-2.5 -2.5t-2.5 -2t-1 -1.5q-10 -9 -27 -26t-23 -24q-24 -24 -48 0q-74 75 -82 82q-15 15 -17 28v1l3 11q7 15 22 17t27 -9q4 -4 66 -67l3 -3q2 -1 3 -2l4 5l65 65q5 5 10 6q19 5 76 6q8 -69 25 -198h0.5h0.5q5 38 13.5 107.5
t11.5 91.5q56 -4 65 -5q15 -1 26 -13l29 -29l35 -35l2 1l28 28l36 36q9 9 13 11q0 1 12 5v1h-6h-70q-16 0 -27 11t-11 27q-1 111 0 189q0 20 16 31l16 7h369q26 -6 33 -32v-201v0zM368 517q-31 0 -53.5 22.5t-22.5 54.5q1 31 23 53t53.5 22t53.5 -22.5t22 -53.5t-22 -53.5
t-54 -22.5v0zM368 517z" />
    <glyph glyph-name="xueji" unicode="&#xe636;" 
d="M916 755h-805q-23 0 -40 -17t-17 -40v-632q0 -24 17 -41t40 -17h805q23 0 40 17t17 41v632q0 23 -17 40t-40 17zM312.5 189q-16.5 0 -38 -2t-35 -4t-28.5 -0.5t-23 7t-13.5 19t-5.5 36.5q0 68 42 116.5t101 48.5q-35 0 -60.5 25.5t-25.5 61t25.5 61t61 25.5t61 -25.5
t25.5 -61t-25.5 -61t-61.5 -25.5q60 0 102 -48.5t42 -116.5q0 -23 -5.5 -36.5t-14 -19t-23 -7t-28 0.5t-35 4t-38 2zM801 181h-173q-23 0 -40 16.5t-17 40.5t17 40.5t40 16.5h173q24 0 40.5 -16.5t16.5 -40.5t-16.5 -40.5t-40.5 -16.5zM801 410h-173q-23 0 -40 17t-17 41
t17 40.5t40 16.5h173q24 0 40.5 -16.5t16.5 -40.5t-16.5 -41t-40.5 -17z" />
    <glyph glyph-name="see-icon-m3-new-fill" unicode="&#xe634;" 
d="M393 -102h516v961h-819v-961h303zM678 575l35 160h36l35 -160l36 160h36l-36 -214h-53l-38 162l-34 -162h-53l-36 214h36zM571 735v-36h-107v-53h107v-36h-107v-53h107v-36h-143v214h143zM268 735l71 -143v143h54v-214h-54l-73 146l2 -146h-53v214h53zM464 432v-53h-249
v53h249zM215 236v54h249v-54h-249zM215 147h249v-53h-249v53zM535 432h285v-338h-285v338z" />
    <glyph glyph-name="kaoqintongji" unicode="&#xe61c;" 
d="M866 616q0 16 -11 26.5t-26 10.5h-634q-15 0 -26 -10.5t-11 -26.5v-558q0 -15 11 -26t26 -11h634q15 0 26 11t11 26v558zM917 58q0 -36 -26 -61.5t-62 -25.5h-634q-36 0 -61.5 25.5t-25.5 61.5v558q0 37 25.5 62.5t61.5 25.5h634q36 0 62 -25.5t26 -62.5v-558zM284.5 565
q-10.5 0 -18 7.5t-7.5 17.5v190q0 10 7.5 17.5t18 7.5t18 -7.5t7.5 -17.5v-190q0 -10 -7.5 -17.5t-18 -7.5zM727 565q-10 0 -17.5 7.5t-7.5 17.5v190q0 10 7.5 17.5t17.5 7.5t17.5 -7.5t7.5 -17.5v-190q0 -10 -7.5 -17.5t-17.5 -7.5zM889 510h-759q-5 0 -8.5 4t-3.5 9t3.5 9
t8.5 4h759q5 0 8.5 -4t3.5 -9t-3.5 -9t-8.5 -4zM291 375q2 -2 5 -2t5 2l15 15v0l69 72q2 2 2 4.5t-3 4.5l-12 12q-2 2 -6 2q-2 0 -4 -2l-38 -43q-26 -28 -30 -28q-2 0 -9 7l-16 14q-2 2 -5 2t-5 -2l-10 -10q-2 -2 -2 -5t2 -5zM491 375q2 -2 5 -2t5 2l15 15v0l69 72
q2 2 1.5 4.5t-2.5 4.5l-12 12q-2 2 -6 2q-2 0 -4 -2l-38 -43q-26 -28 -30 -28q-2 0 -10 7l-15 14q-2 2 -5 2t-5 -2l-10 -10q-2 -2 -2 -5t2 -5zM683 375q3 -2 5.5 -2t5.5 2l14 15v0l69 72q2 2 2 4.5t-2 4.5l-12 12q-3 2 -6 2q-2 0 -5 -2l-37 -43q-27 -28 -31 -28q-2 0 -9 7
l-16 14q-2 2 -5 2t-5 -2l-10 -10q-2 -2 -1.5 -5t2.5 -5zM289 232q2 -2 5 -2t5 3l15 15v0l69 71q2 2 2 5t-2 5l-13 12q-2 2 -6 2q-2 0 -4 -2l-38 -43q-26 -28 -30 -28q-2 0 -9 7l-16 14q-2 2 -5 2t-5 -2l-10 -11q-2 -2 -2 -4.5t2 -4.5zM289 89q2 -2 5 -1.5t5 2.5l15 15v0
l69 71q2 3 2 5.5t-3 4.5l-12 12q-2 2 -6 2q-2 0 -4 -2l-38 -43q-26 -28 -30 -28q-2 0 -9 7l-16 14q-2 2 -5 2t-5 -2l-10 -10q-2 -3 -2 -5.5t2 -4.5l42 -39v0zM489 232q2 -2 5 -2t5 3l15 15v0l69 71q2 2 1.5 5t-2.5 5l-12 12q-2 2 -6 2q-2 0 -4 -2l-38 -43q-26 -28 -30 -28
q-2 0 -10 7l-15 14q-2 2 -5 2t-5 -2l-10 -11q-2 -2 -2 -4.5t2 -4.5zM681 232q3 -2 5.5 -2t5.5 3l14 15v0l69 71q2 2 2 5t-2 5l-12 12q-3 2 -6 2q-2 0 -5 -2l-37 -43q-27 -28 -31 -28q-2 0 -9 7l-16 14q-2 2 -5 2t-5 -2l-10 -11q-2 -2 -1.5 -4.5t2.5 -5.5zM692 172h-28v-80
h28h23h28v80h-28h-23zM465 172v-80h28h23h28v51v29h-79z" />
    <glyph glyph-name="ziyuan" unicode="&#xe628;" 
d="M957 384q0 91 -35 173.5t-94.5 142t-142 94.5t-173.5 35t-173.5 -35t-142 -94.5t-94.5 -142t-35 -173.5q0 -111 51 -208t140.5 -158.5t198.5 -74.5q19 -4 45 -4h15q120 2 221.5 61.5t160 161.5t58.5 222v0zM894 378q-2 33 -9 65q1 12 0 21q9 -39 9 -80v-6v0zM130 384
q0 40 8 79q13 -14 35.5 -12t29.5 21q4 -2 16.5 -7t18 -10.5t5.5 -14.5q0 -25 0.5 -40.5t4 -36.5t10 -32.5t18.5 -20.5t30 -9q2 0 10 -4.5t20 -17t19 -30.5q2 -6 9 -6t19.5 3t20.5 3q5 0 5 -5.5t-2.5 -22.5t-2.5 -33q0 -18 22.5 -44.5t44.5 -43.5l22 -17q0 -40 3 -67
q-28 0 -50 -7q-136 23 -226 129t-90 246v0zM606 15q-3 16 -26 10q8 36 11.5 49t12 30t21.5 28q17 17 16.5 32.5t-13.5 25.5t-28 7q-8 -1 -11.5 3.5t-4 10t-3.5 11t-10 5.5q-10 1 -36 25.5t-40 31.5l-20 13.5t-35 14.5q-5 0 -13 -1.5t-14.5 -3.5t-12 -3.5t-9 -0.5t-3.5 5
q0 15 -6 93q0 3 -1 5q0 1 2 1q8 -2 21 -3q8 0 12 16t11 17q7 0 31.5 -6t29.5 -2q2 1 7 -7q3 -4 10 -18q25 -45 35 -46q11 0 11 46q0 5 -1.5 16t-1.5 20.5t3 15.5q7 13 16.5 30t15.5 27.5t11.5 20.5t8 16t2 8t-8.5 3t-20.5 0t-22.5 -4q-4 -2 -3.5 -9t-5.5 -8q-21 -4 -37.5 -1
t-24.5 12t-2 19q5 7 20.5 11.5t28.5 12t15 24.5q3 28 5 68q31 -5 36 19q5 26 -25 46q-18 12 -43 15q122 -2 219.5 -73t136.5 -184q-4 4 -9 4q-15 38 -42 29q-23 -8 -26 -37q-2 -14 3 -29q-127 -98 -45 -175q23 -21 49 -63q-7 -21 10 -20q25 1 52 36q8 12 14 25
q-28 -98 -101.5 -169t-171.5 -95v0v0z" />
    <glyph glyph-name="shouyeshouye" unicode="&#xe605;" 
d="M937 434q-1 21 -14 40l-319 342q-33 34 -80 34v1h-0.5h-1h-1h-0.5v-1q-48 0 -81 -34q-316 -339 -318 -342q-14 -19 -14 -40v-6q0 -35 24.5 -59.5t59.5 -24.5h20v-300q0 -37 28.5 -63t69 -26t69.5 26t29 63v300h229v-300q0 -37 28.5 -63t69.5 -26t69.5 26t28.5 63v300h20
q35 0 59.5 24.5t24.5 59.5v0.5v0.5v5zM812 736v0l63 -67q7 -7 16.5 -7t16.5 6h1l1 1q4 5 5 11q0 1 1 3v3l7 124q1 13 -8 23v0v0h-1v0q-9 10 -22 10h-124q-1 0 -3 -1h-3q-7 -1 -11 -5l-1 -1v0q-7 -7 -7.5 -16.5t6.5 -16.5z" />
    <glyph glyph-name="biaodan" unicode="&#xe69e;" 
d="M404 602h215q23 0 38.5 15.5t15.5 37.5v107h-107v54h-108v-54h-107v-107q0 -22 15.5 -37.5t37.5 -15.5v0zM458 709h108v-54h-108v54zM297 121h430v481h-54q0 -22 -15.5 -38t-38.5 -16h-215q-22 0 -37.5 16t-15.5 38h-54v-481zM351 495h322v-54h-322v54zM351 388h215v-54
h-215v54zM351 281h268v-53h-268v53zM834 762h-107v-107h54v-588h-538v588h54v107h-108q-22 0 -37.5 -15.5t-15.5 -37.5v-695q0 -23 15.5 -38.5t37.5 -15.5h645q23 0 38.5 15.5t15.5 38.5v695q0 22 -15.5 37.5t-38.5 15.5v0z" />
    <glyph glyph-name="xuexiao" unicode="&#xe602;" 
d="M708 317v231l-179 131v67h159v86h-181v-153l-181 -138v-224h-223v-379h329v146q0 32 23.5 55t56.5 23v0q34 0 58 -23.5t24 -56.5v-144h322v379h-208zM514 374q-33 0 -56.5 23t-23.5 55.5t23.5 55.5t56.5 23t56.5 -23t23.5 -55.5t-23.5 -55.5t-56.5 -23v0z" />
    <glyph glyph-name="richengshili" unicode="&#xe61a;" 
d="M320 638q13 0 22 9t9 22v137q0 12 -9 21t-22 9t-22 -9t-9 -21v-137q0 -13 9 -22t22 -9zM706 638q13 0 22 9t9 22v137q0 12 -9 21t-22 9t-22 -9t-9 -21v-137q0 -13 9 -22t22 -9zM868 737h-121v-68q0 -17 -12 -29t-29 -12t-29 12t-12 29v68h-304v-68q0 -17 -12 -29t-29 -12
t-29 12t-12 29v68h-121q-12 0 -20.5 -8.5t-8.5 -20.5v-131h768v131q0 12 -8.5 20.5t-20.5 8.5zM129 -33q0 -12 8.5 -20.5t20.5 -8.5h710q12 0 20.5 8.5t8.5 20.5v549h-768v-549zM569.5 341q22.5 39 78 39t77.5 -39t22 -111t-22 -110.5t-77.5 -38.5t-78 38.5t-22.5 110.5
t22.5 111zM395 210q-14 5 -42 5v41q28 0 39 5q19 9 19 34q0 17 -10 27.5t-27 10.5q-20 0 -29.5 -13t-9.5 -34h-53q1 21 7 41q7 17 22 31q12 10 27 15.5t38 5.5q41 0 66.5 -21.5t25.5 -57.5q0 -26 -15 -43q-10 -11 -20 -15q8 0 22 -13q22 -21 22 -56q0 -36 -25.5 -64
t-75.5 -28q-61 0 -85 40q-13 21 -14 56h56q0 -17 5 -29q11 -21 38 -21q17 0 29.5 11.5t12.5 33.5q0 28 -23 38v0zM647.5 127q25.5 0 33 26.5t7.5 76.5q0 52 -7.5 77.5t-33 25.5t-33.5 -25.5t-8 -77.5q0 -50 8 -76.5t33.5 -26.5z" />
    <glyph glyph-name="wodezichan" unicode="&#xe61b;" horiz-adv-x="1025" 
d="M541 691q-13 10 -29 8.5t-28 -14.5l-288 -300q-22 -24 -22 -54v-289q0 -45 30.5 -76.5t76.5 -31.5h209v82h-73q-21 2 -23 18q0 20 23 20h73v40h-73q-21 2 -23 17q0 20 23 20h50l-86 140q0 2 -2 4q-7 14 -8 31q1 -1 4 0.5t7.5 3.5t9.5 3q16 0 25 -16l95 -153l96 153
q8 16 25 16q17 -3 19 -20q0 -5 -7 -18q-1 -2 -2 -5l-85 -139h50q23 0 23 -20q-2 -15 -23 -18h-73v-39h73q23 0 23 -20q-2 -16 -23 -18h-73v-82h209q43 0 75 32t32 76v289q0 30 -22 54zM953 397l-390 414q-21 23 -53.5 23t-53.5 -23l-390 -414q-10 -21 0 -42q9 -9 23 -9t22 9
l390 414q4 5 11 5t12 -5l389 -420q6 -6 23 -6q11 0 23 12q11 24 -6 42v0z" />
    <glyph glyph-name="icon-approve-bold" unicode="&#xe61d;" 
d="M422 294v109q-60 26 -97 81.5t-37 123.5q0 93 65.5 158.5t158.5 65.5t158.5 -65.5t65.5 -158.5q0 -68 -37 -123.5t-97 -81.5v-109h201q47 0 79.5 -32.5t32.5 -79.5v-112h-806v112q0 47 33 79.5t79 32.5h201zM154 26h716v-90h-716v90z" />
    <glyph glyph-name="lianjie" unicode="&#xe60e;" 
d="M552 543l-80 -80l63 -56q28 -38 28 -80q0 -45 -34 -79l-159 -159q-34 -34 -79.5 -34t-79.5 34t-34 79.5t34 79.5l120 119l-80 79l-119 -119q-68 -68 -68 -161.5t68 -161.5t159 -68q44 0 87 17.5t72 50.5l158 159q68 59 68 159q0 96 -62 158zM892 764q-68 68 -161.5 68
t-161.5 -68l-159 -159q-68 -68 -68 -161.5t68 -161.5l62 -57l80 80l-63 62q-34 34 -34 79.5t34 79.5l165 153q30 34 77.5 34t81.5 -34t34 -79.5t-34 -79.5l-120 -119l80 -79l119 119q68 68 68 161.5t-68 161.5z" />
    <glyph glyph-name="chuangyiyunpan" unicode="&#xe600;" horiz-adv-x="1449" 
d="M971 656q-46 60 -114 94q-70 36 -149 36q-138 0 -235 -98q-94 -94 -98 -226v0q-98 0 -168 -70q-69 -70 -69 -168t69.5 -167.5t167.5 -69.5h239q16 0 27 11t11 26.5t-11 27t-27 11.5h-239q-67 0 -114.5 47.5t-47.5 114t47.5 114t114.5 47.5h39q17 0 28.5 12.5t9.5 28.5
q-1 13 -1 26q0 106 75 181.5t182 75.5q61 0 115 -27q53 -27 88 -73q12 -15 30 -15q13 0 24 8q12 10 14 25.5t-8 27.5zM1224 48h-517q-21 0 -37 21t-16 43q0 20 15.5 35t37.5 15h524q21 0 36.5 -15t15.5 -35q0 -22 -16 -43t-36 -21h-7zM1156 132q-12 0 -20.5 -8t-8.5 -19.5
t8.5 -19.5t20.5 -8t20.5 8t8.5 19.5t-8.5 19.5t-20.5 8v0zM1187 446q-1 5 -3 9v3h-1q-10 20 -32 22v0h-368q-24 0 -35 -22h-1l-1 -3q-2 -4 -2 -9l-76 -263q18 6 35 6h525q16 0 34 -6z" />
  </font>
</defs>
</svg>
